Coordinates
version=1
nRows=13
nColumns=22
inDegrees=yes

Units are S.I. units (second, meters, Newtons, ...)
If the header above contains a line with 'inDegrees', this indicates whether rotational values are in degrees (yes) or radians (no).

endheader
time	pelvis_tilt	pelvis_list	pelvis_rotation	pelvis_tx	pelvis_ty	pelvis_tz	hip_flexion_r	hip_adduction_r	hip_rotation_r	knee_angle_r	ankle_angle_r	subtalar_angle_r	hip_flexion_l	hip_adduction_l	hip_rotation_l	knee_angle_l	ankle_angle_l	subtalar_angle_l	lumbar_extension	lumbar_bending	lumbar_rotation
      0.01000000	     -3.57877227	     -4.24623636	     -1.68010737	      1.11734809	      0.94278250	     -0.27822206	      6.42734897	      4.82488782	     -2.63782372	    -13.53386175	     11.00649609	     -4.00369935	      9.81312140	     -6.26024638	     -5.51235355	    -21.80549730	     14.09418194	     -4.63431036	     -2.97244314	      2.39331235	     -0.69716825
      0.02000000	     -3.53957290	     -4.26122879	     -1.83376545	      1.11744672	      0.94276056	     -0.27795087	      6.47373338	      4.86092518	     -2.47834635	    -13.69890838	     11.03356680	     -4.02025805	      9.79999783	     -6.31233949	     -5.61729269	    -21.89751772	     13.93923021	     -4.52120165	     -3.04578371	      2.41066842	     -0.60213696
      0.03000000	     -3.50082986	     -4.27823594	     -1.99055193	      1.11759040	      0.94272550	     -0.27766930	      6.52363376	      4.89981426	     -2.31546084	    -13.87432094	     11.06030565	     -4.04125416	      9.79673195	     -6.36862542	     -5.71909695	    -22.01299366	     13.82524888	     -4.32595644	     -3.11731045	      2.43028111	     -0.51521337
      0.04000000	     -3.46749534	     -4.29267279	     -2.13625589	      1.11776749	      0.94267987	     -0.27740155	      6.58511733	      4.93441706	     -2.16849976	    -14.06377670	     11.09467541	     -4.05658142	      9.80482131	     -6.42505371	     -5.83400569	    -22.13834787	     13.72401102	     -4.12301170	     -3.18119168	      2.44840895	     -0.46469445
      0.05000000	     -3.44266052	     -4.29954627	     -2.27251518	      1.11794096	      0.94262518	     -0.27714686	      6.66451325	      4.96006722	     -2.03186373	    -14.26848974	     11.13598515	     -4.06859898	      9.82426324	     -6.47282772	     -5.94780016	    -22.26705461	     13.66116238	     -3.90485746	     -3.23660243	      2.45635440	     -0.42226497
      0.06000000	     -3.40925837	     -4.31129927	     -2.37584502	      1.11809716	      0.94258843	     -0.27695306	      6.73659420	      4.98356086	     -1.95617328	    -14.47419496	     11.18454935	     -4.07640278	      9.83876800	     -6.51798646	     -6.03205526	    -22.39443943	     13.59107095	     -3.76594037	     -3.30559640	      2.47090713	     -0.39592250
      0.07000000	     -3.40502971	     -4.29516974	     -2.48738370	      1.11819645	      0.94252365	     -0.27672790	      6.85785608	      4.98496533	     -1.82211082	    -14.70532205	     11.22538321	     -4.07875085	      9.87214668	     -6.53888670	     -6.16066445	    -22.49780935	     13.59251638	     -3.56582451	     -3.34289429	      2.44760608	     -0.39047457
      0.08000000	     -3.38362901	     -4.28929444	     -2.56152796	      1.11825702	      0.94248869	     -0.27657124	      6.95947406	      4.98969379	     -1.74718938	    -14.92997786	     11.26308431	     -4.08002704	      9.89329944	     -6.55860542	     -6.23707828	    -22.60041643	     13.58744364	     -3.43483224	     -3.40282362	      2.43637301	     -0.39547320
      0.09000000	     -3.34155666	     -4.29300898	     -2.61473078	      1.11828326	      0.94249432	     -0.27644316	      7.03759180	      5.00145699	     -1.70058104	    -15.14735497	     11.28880415	     -4.08286721	      9.88794935	     -6.57714935	     -6.26749066	    -22.69028203	     13.57487381	     -3.38726779	     -3.49007262	      2.43010780	     -0.38955553
      0.10000000	     -3.31745122	     -4.27850572	     -2.67891664	      1.11831010	      0.94247561	     -0.27630659	      7.14222681	      4.99788770	     -1.61471941	    -15.37950063	     11.33298509	     -4.08392624	      9.88197593	     -6.57694334	     -6.32980917	    -22.74871598	     13.58818456	     -3.32484972	     -3.54626666	      2.40348190	     -0.38112152
      0.11000000	     -3.27224406	     -4.28283934	     -2.71617361	      1.11831999	      0.94249361	     -0.27620734	      7.21628997	      5.01003541	     -1.56866428	    -15.59504355	     11.35363352	     -4.08762283	      9.85621216	     -6.58512565	     -6.32725273	    -22.80674362	     13.59409443	     -3.30792196	     -3.62774549	      2.39446418	     -0.35521131
      0.12000000	     -3.22850315	     -4.28042386	     -2.75011719	      1.11833796	      0.94251157	     -0.27613510	      7.29018344	      5.01390758	     -1.51513239	    -15.80925269	     11.38041141	     -4.09305316	      9.82108375	     -6.58216638	     -6.32759037	    -22.84592506	     13.60583813	     -3.30230841	     -3.70012076	      2.38050902	     -0.32528146
      0.13000000	     -3.18767408	     -4.27428921	     -2.77063908	      1.11834931	      0.94252671	     -0.27606825	      7.36099782	      5.01558623	     -1.46354048	    -16.01161073	     11.41028493	     -4.09992016	      9.78230768	     -6.57481073	     -6.32831770	    -22.86561454	     13.61724851	     -3.30550512	     -3.76513611	      2.35557335	     -0.28893845
